<svg width="18" height="18" viewBox="0 0 18 18" fill="none" xmlns="http://www.w3.org/2000/svg">
<path d="M3.75 5.64774C3.75 5.96903 4.01172 6.22839 4.33594 6.22839H4.64844V13.0877C4.64844 14.1445 5.51172 15 6.57422 15H11.4258C12.4883 15 13.3516 14.1445 13.3516 13.0877V6.22839H13.6641C13.9883 6.22839 14.25 5.96903 14.25 5.64774C14.25 5.32645 13.9883 5.0671 13.6641 5.0671H11.6133V4.4671C11.6133 3.65806 10.9492 3 10.1328 3H7.86719C7.05078 3 6.38672 3.65806 6.38672 4.4671V5.0671H4.33594C4.01172 5.0671 3.75 5.32645 3.75 5.64774ZM11.043 7.87742V12.1897C11.043 12.511 10.7812 12.7703 10.457 12.7703C10.1328 12.7703 9.87109 12.511 9.87109 12.1897V7.87742C9.87109 7.55613 10.1328 7.29677 10.457 7.29677C10.7812 7.29677 11.043 7.55613 11.043 7.87742ZM7.55859 4.4671C7.55859 4.29677 7.69531 4.16129 7.86719 4.16129H10.1328C10.3047 4.16129 10.4414 4.29677 10.4414 4.4671V5.0671H7.55859V4.4671ZM6.95703 7.87742C6.95703 7.55613 7.21875 7.29677 7.54297 7.29677C7.86719 7.29677 8.12891 7.55613 8.12891 7.87742V12.1897C8.12891 12.511 7.86719 12.7703 7.54297 12.7703C7.21875 12.7703 6.95703 12.511 6.95703 12.1897V7.87742Z" fill="white"/>
</svg>
