<svg width="24" height="24" viewBox="0 0 24 24" fill="none" xmlns="http://www.w3.org/2000/svg">
<path d="M4.84869 12.952L4.02396 16.734C3.98663 16.9055 3.99301 17.0837 4.04251 17.2522C4.09201 17.4206 4.18305 17.5738 4.30723 17.6978C4.43312 17.8187 4.58626 17.9073 4.75366 17.9563C4.92107 18.0053 5.0978 18.0132 5.2689 17.9793L9.03821 17.1515C9.23392 17.1085 9.41316 17.0101 9.55458 16.8679L19.0813 7.33026C19.3726 7.03873 19.6036 6.69261 19.7612 6.31168C19.9189 5.93075 20 5.52247 20 5.11014C20 4.69782 19.9189 4.28953 19.7612 3.9086C19.6036 3.52767 19.3726 3.18155 19.0813 2.89002C18.4842 2.31878 17.6902 2 16.8643 2C16.0384 2 15.2443 2.31878 14.6472 2.89002L5.1351 12.4371C4.99233 12.5777 4.89292 12.7564 4.84869 12.952ZM16.1253 4.3708C16.3241 4.18007 16.5889 4.07359 16.8643 4.07359C17.1397 4.07359 17.4044 4.18007 17.6033 4.3708C17.7967 4.5682 17.905 4.83365 17.905 5.11014C17.905 5.38663 17.7967 5.65209 17.6033 5.84948L16.8643 6.58935L15.3862 5.10962L16.1253 4.3708ZM6.82219 13.6992L13.903 6.59249L15.3664 8.0649L8.28246 15.1737L6.40617 15.586L6.82219 13.6992Z" fill="white"/>
<rect x="4" y="20" width="16" height="2" rx="1" fill="white"/>
</svg>
